<?xml version="1.0" encoding="UTF-8" standalone="no"?>
<!-- Created with Bouml (http://bouml.free.fr/) -->
<!DOCTYPE svg PUBLIC "-//W3C//DTD SVG 1.1//EN" "http://www.w3.org/Graphics/SVG/1.1/DTD/svg11.dtd">
<svg width="854" height="1191" version="1.1" xmlns="http://www.w3.org/2000/svg">
<g>
	<polygon fill="#ededed" stroke="black" stroke-opacity="1" points="32,161 832,161 832,171 842,171 842,359 32,359 32,161" />
	<line stroke="black" stroke-opacity="1" x1="832" y1="161" x2="842" y2="171" />
	<text font-family="Helvetica" font-size="8" fill="#000000" xml:space="preserve" x="42" y="186">Subscriber gets Publisher Feed (normal way)</text>
</g>
<g>
	<polygon fill="#f6f6f6" stroke="black" stroke-opacity="1" points="10,361 814,361 814,371 824,371 824,625 10,625 10,361" />
	<line stroke="black" stroke-opacity="1" x1="814" y1="361" x2="824" y2="371" />
	<text font-family="Helvetica" font-size="8" fill="#000000" xml:space="preserve" x="20" y="386">Subscription</text>
</g>
<g>
	<polygon fill="#f6f6f6" stroke="black" stroke-opacity="1" points="11,647 805,647 805,657 815,657 815,1179 11,1179 11,647" />
	<line stroke="black" stroke-opacity="1" x1="805" y1="647" x2="815" y2="657" />
	<text font-family="Helvetica" font-size="8" fill="#000000" xml:space="preserve" x="21" y="672">Publish</text>
</g>
<g>
	<polygon fill="#ededed" stroke="black" stroke-opacity="1" points="375,54 827,54 827,64 837,64 837,206 375,206 375,54" />
	<line stroke="black" stroke-opacity="1" x1="827" y1="54" x2="837" y2="64" />
	<text font-family="Helvetica" font-size="8" fill="#000000" xml:space="preserve" x="385" y="79">Publisher notifies Hub</text>
</g>
<g>
	<line stroke="black" stroke-dasharray="18,6"  stroke-opacity="1" x1="530" y1="45" x2="530" y2="1191" />
</g>
<g>
	<rect fill="#ffeb60" stroke="black" stroke-width="1" stroke-opacity="1" x="525" y="104" width="10" height="98" />
</g>
<g>
	<rect fill="#ffeb60" stroke="black" stroke-width="1" stroke-opacity="1" x="525" y="705" width="10" height="472" />
</g>
<g>
	<line stroke="black" stroke-dasharray="18,6"  stroke-opacity="1" x1="50" y1="45" x2="50" y2="1191" />
</g>
<g>
	<line stroke="black" stroke-dasharray="18,6"  stroke-opacity="1" x1="644" y1="45" x2="644" y2="1191" />
</g>
<g>
	<line stroke="black" stroke-dasharray="18,6"  stroke-opacity="1" x1="756" y1="45" x2="756" y2="1191" />
</g>
<g>
	<line stroke="black" stroke-dasharray="18,6"  stroke-opacity="1" x1="410" y1="45" x2="410" y2="1191" />
</g>
<g>
	<ellipse fill="none" stroke="black" stroke-width="1" stroke-opacity="1" cx="50" cy="7" rx="3" ry="3" />
	<line stroke="black" stroke-opacity="1" x1="45" y1="13" x2="56" y2="13" />
	<line stroke="black" stroke-opacity="1" x1="50" y1="10" x2="50" y2="18" />
	<line stroke="black" stroke-opacity="1" x1="50" y1="18" x2="45" y2="23" />
	<line stroke="black" stroke-opacity="1" x1="50" y1="18" x2="55" y2="23" />
	<text font-family="Helvetica" font-size="8" fill="#000000" xml:space="preserve" text-anchor="middle" x="51" y="37">:Subscriber</text>
</g>
<g>
	<ellipse fill="none" stroke="black" stroke-width="1" stroke-opacity="1" cx="165" cy="7" rx="3" ry="3" />
	<line stroke="black" stroke-opacity="1" x1="160" y1="13" x2="171" y2="13" />
	<line stroke="black" stroke-opacity="1" x1="165" y1="10" x2="165" y2="18" />
	<line stroke="black" stroke-opacity="1" x1="165" y1="18" x2="160" y2="23" />
	<line stroke="black" stroke-opacity="1" x1="165" y1="18" x2="170" y2="23" />
	<text font-family="Helvetica" font-size="8" fill="#000000" xml:space="preserve" text-anchor="middle" x="166" y="37">:SubscriberWebsocket</text>
</g>
<g>
	<ellipse fill="none" stroke="black" stroke-width="1" stroke-opacity="1" cx="756" cy="7" rx="3" ry="3" />
	<line stroke="black" stroke-opacity="1" x1="751" y1="13" x2="762" y2="13" />
	<line stroke="black" stroke-opacity="1" x1="756" y1="10" x2="756" y2="18" />
	<line stroke="black" stroke-opacity="1" x1="756" y1="18" x2="751" y2="23" />
	<line stroke="black" stroke-opacity="1" x1="756" y1="18" x2="761" y2="23" />
	<text font-family="Helvetica" font-size="8" fill="#000000" xml:space="preserve" text-anchor="middle" x="757" y="37">:Publisher</text>
</g>
<g>
	<ellipse fill="none" stroke="black" stroke-width="1" stroke-opacity="1" cx="409" cy="7" rx="3" ry="3" />
	<line stroke="black" stroke-opacity="1" x1="404" y1="13" x2="415" y2="13" />
	<line stroke="black" stroke-opacity="1" x1="409" y1="10" x2="409" y2="18" />
	<line stroke="black" stroke-opacity="1" x1="409" y1="18" x2="404" y2="23" />
	<line stroke="black" stroke-opacity="1" x1="409" y1="18" x2="414" y2="23" />
	<text font-family="Helvetica" font-size="8" fill="#000000" xml:space="preserve" text-anchor="middle" x="410" y="37">:Hub</text>
</g>
<g>
	<rect fill="#ffd700" stroke="black" stroke-width="1" stroke-opacity="1" x="405" y="442" width="10" height="41" />
</g>
<g>
	<rect fill="#ffd700" stroke="black" stroke-width="1" stroke-opacity="1" x="405" y="892" width="10" height="137" />
</g>
<g>
	<rect fill="#00aa00" stroke="black" stroke-width="1" stroke-opacity="1" x="751" y="683" width="10" height="192" />
</g>
<g>
	<rect fill="#00aa00" stroke="black" stroke-width="1" stroke-opacity="1" x="751" y="950" width="10" height="40" />
</g>
<g>
	<rect fill="#ff00ff" stroke="black" stroke-width="1" stroke-opacity="1" x="45" y="176" width="10" height="167" />
</g>
<g>
	<rect fill="#ff00ff" stroke="black" stroke-width="1" stroke-opacity="1" x="45" y="371" width="10" height="251" />
</g>
<g>
	<rect fill="#ffd700" stroke="black" stroke-width="1" stroke-opacity="1" x="405" y="1046" width="10" height="38" />
</g>
<g>
	<rect fill="#00aa00" stroke="black" stroke-width="1" stroke-opacity="1" x="751" y="69" width="10" height="135" />
</g>
<g>
	<rect fill="#ffd700" stroke="black" stroke-width="1" stroke-opacity="1" x="405" y="137" width="10" height="39" />
</g>
<g>
	<rect fill="#90e990" stroke="black" stroke-width="1" stroke-opacity="1" x="639" y="80" width="10" height="1096" />
</g>
<g>
	<rect fill="#00aa00" stroke="black" stroke-width="1" stroke-opacity="1" x="751" y="244" width="10" height="36" />
</g>
<g>
	<rect fill="#ff00ff" stroke="black" stroke-width="1" stroke-opacity="1" x="45" y="1138" width="10" height="27" />
</g>
<g>
	<rect fill="#ffd700" stroke="black" stroke-width="1" stroke-opacity="1" x="405" y="502" width="10" height="68" />
</g>
<g>
	<line stroke="black" stroke-opacity="1" x1="56" y1="617" x2="161" y2="617" />
	<path fill="none" stroke="black" stroke-opacity="1" d="M 60 613 L 56 617 L 60 621" />
</g>
<g>
	<line stroke="black" stroke-opacity="1" x1="536" y1="710" x2="639" y2="710" />
	<path fill="none" stroke="black" stroke-opacity="1" d="M 540 706 L 536 710 L 540 714" />
</g>
<g>
	<line stroke="black" stroke-opacity="1" x1="416" y1="781" x2="525" y2="781" />
	<polygon fill="#000000" stroke="none" points="416,781 420,777 420,785" />
</g>
<g>
	<line stroke="black" stroke-opacity="1" x1="536" y1="1008" x2="639" y2="1008" />
	<path fill="none" stroke="black" stroke-opacity="1" d="M 540 1004 L 536 1008 L 540 1012" />
</g>
<g>
	<ellipse fill="none" stroke="black" stroke-width="1" stroke-opacity="1" cx="643" cy="7" rx="3" ry="3" />
	<line stroke="black" stroke-opacity="1" x1="638" y1="13" x2="649" y2="13" />
	<line stroke="black" stroke-opacity="1" x1="643" y1="10" x2="643" y2="18" />
	<line stroke="black" stroke-opacity="1" x1="643" y1="18" x2="638" y2="23" />
	<line stroke="black" stroke-opacity="1" x1="643" y1="18" x2="648" y2="23" />
	<text font-family="Helvetica" font-size="8" fill="#000000" xml:space="preserve" text-anchor="middle" x="644" y="37">:PublisherWebsocket</text>
</g>
<g>
	<line stroke="black" stroke-opacity="1" x1="650" y1="252" x2="751" y2="252" />
	<path fill="none" stroke="black" stroke-opacity="1" d="M 747 248 L 751 252 L 747 256" />
</g>
<g>
	<line stroke="black" stroke-opacity="1" stroke-dasharray="4,4" x1="536" y1="726" x2="639" y2="726" />
	<path fill="none" stroke="black" stroke-opacity="1" d="M 635 722 L 639 726 L 635 730" />
</g>
<g>
	<line stroke="black" stroke-opacity="1" stroke-dasharray="4,4" x1="536" y1="744" x2="639" y2="744" />
	<path fill="none" stroke="black" stroke-opacity="1" d="M 540 740 L 536 744 L 540 748" />
</g>
<g>
	<ellipse fill="none" stroke="black" stroke-width="1" stroke-opacity="1" cx="529" cy="7" rx="3" ry="3" />
	<line stroke="black" stroke-opacity="1" x1="524" y1="13" x2="535" y2="13" />
	<line stroke="black" stroke-opacity="1" x1="529" y1="10" x2="529" y2="18" />
	<line stroke="black" stroke-opacity="1" x1="529" y1="18" x2="524" y2="23" />
	<line stroke="black" stroke-opacity="1" x1="529" y1="18" x2="534" y2="23" />
	<text font-family="Helvetica" font-size="8" fill="#000000" xml:space="preserve" text-anchor="middle" x="530" y="37">Publisher:HubWebsocket</text>
</g>
<g>
	<line stroke="black" stroke-opacity="1" x1="650" y1="868" x2="751" y2="868" />
	<path fill="none" stroke="black" stroke-opacity="1" d="M 747 864 L 751 868 L 747 872" />
</g>
<g>
	<line stroke="black" stroke-opacity="1" x1="650" y1="199" x2="751" y2="199" />
	<path fill="none" stroke="black" stroke-opacity="1" d="M 747 195 L 751 199 L 747 203" />
</g>
<g>
	<line stroke="black" stroke-opacity="1" x1="536" y1="848" x2="639" y2="848" />
	<path fill="none" stroke="black" stroke-opacity="1" d="M 635 844 L 639 848 L 635 852" />
</g>
<g>
	<line stroke="black" stroke-opacity="1" x1="536" y1="941" x2="639" y2="941" />
	<path fill="none" stroke="black" stroke-opacity="1" d="M 635 937 L 639 941 L 635 945" />
</g>
<g>
	<line stroke="black" stroke-opacity="1" x1="650" y1="273" x2="751" y2="273" />
	<path fill="none" stroke="black" stroke-opacity="1" d="M 654 269 L 650 273 L 654 277" />
</g>
<g>
	<line stroke="black" stroke-opacity="1" x1="536" y1="189" x2="639" y2="189" />
	<path fill="none" stroke="black" stroke-opacity="1" d="M 635 185 L 639 189 L 635 193" />
</g>
<g>
	<text font-family="Helvetica" font-size="8" fill="#000000" xml:space="preserve" x="172" y="395">Send WS://WSH/?mode=subscribe&amp;topic_url=ws://P/rss&amp;callback_url=ws://S/callback)</text>
</g>
<g>
	<text font-family="Helvetica" font-size="8" fill="#000000" xml:space="preserve" x="297" y="442">POST HTTP://H/?mode=subscribe&amp;topic_url=http://WSH/P/rss&amp;callback_url=http://WSH/callback</text>
</g>
<g>
	<text font-family="Helvetica" font-size="8" fill="#000000" xml:space="preserve" x="315" y="498">GET HTTP://WSH/callback/?hub_challenge=X</text>
</g>
<g>
	<text font-family="Helvetica" font-size="8" fill="#000000" xml:space="preserve" x="321" y="522">200 [hub_challenge]</text>
</g>
<g>
	<text font-family="Helvetica" font-size="8" fill="#000000" xml:space="preserve" x="210" y="586">Send WS://S/callback [20X]</text>
</g>
<g>
	<text font-family="Helvetica" font-size="8" fill="#000000" xml:space="preserve" x="74" y="603">message [20X]</text>
</g>
<g>
	<text font-family="Helvetica" font-size="8" fill="#000000" xml:space="preserve" x="340" y="546">20X?</text>
</g>
<g>
	<text font-family="Helvetica" font-size="8" fill="#000000" xml:space="preserve" x="59" y="377">subcribe(hub_url='http://WSH', topic_url='http://P/rss', callback_url='http://S/callback')</text>
</g>
<g>
	<text font-family="Helvetica" font-size="8" fill="#000000" xml:space="preserve" x="342" y="459">[20X]</text>
</g>
<g>
	<text font-family="Helvetica" font-size="8" fill="#000000" xml:space="preserve" x="562" y="675">publish(hub_url='http://WSH', topic_url='http://P/rss')</text>
</g>
<g>
	<text font-family="Helvetica" font-size="8" fill="#000000" xml:space="preserve" x="678" y="856">message [20X]</text>
</g>
<g>
	<text font-family="Helvetica" font-size="8" fill="#000000" xml:space="preserve" x="675" y="944">get P/rss</text>
</g>
<g>
	<text font-family="Helvetica" font-size="8" fill="#000000" xml:space="preserve" x="666" y="968">message [...xml...]</text>
</g>
<g>
	<text font-family="Helvetica" font-size="8" fill="#000000" xml:space="preserve" x="579" y="75">publish(hub_url='http://WSH', topic_url='http://P/rss')</text>
</g>
<g>
	<text font-family="Helvetica" font-size="8" fill="#000000" xml:space="preserve" x="96" y="170">get(publisher=P)</text>
</g>
<g>
	<text font-family="Helvetica" font-size="8" fill="#000000" xml:space="preserve" x="711" y="185">20X</text>
</g>
<g>
	<text font-family="Helvetica" font-size="8" fill="#000000" xml:space="preserve" x="183" y="186">Send WS://WSH</text>
</g>
<g>
	<text font-family="Helvetica" font-size="8" fill="#000000" xml:space="preserve" x="371" y="227">Send WS://P/rss</text>
</g>
<g>
	<text font-family="Helvetica" font-size="8" fill="#000000" xml:space="preserve" x="669" y="238">get http://P/rss</text>
</g>
<g>
	<text font-family="Helvetica" font-size="8" fill="#000000" xml:space="preserve" x="599" y="265">200 [...&lt;atom:link rel='hub' href='http://WSH' /&gt;...]</text>
</g>
<g>
	<text font-family="Helvetica" font-size="8" fill="#000000" xml:space="preserve" x="300" y="277">200 [...&lt;atom:link rel='hub' href='http://WSH' /&gt;...]</text>
</g>
<g>
	<text font-family="Helvetica" font-size="8" fill="#000000" xml:space="preserve" x="186" y="301">200 [...&lt;atom:link rel='hub' href='http://WSH' /&gt;...]</text>
</g>
<g>
	<text font-family="Helvetica" font-size="8" fill="#000000" xml:space="preserve" x="57" y="322">200 [...&lt;atom:link rel='hub' href='http://WSH' /&gt;...]</text>
</g>
<g>
	<text font-family="Helvetica" font-size="8" fill="#000000" xml:space="preserve" x="206" y="1113">Send 20X [..xml..]</text>
</g>
<g>
	<text font-family="Helvetica" font-size="8" fill="#000000" xml:space="preserve" x="81" y="1131">20X [..xml..]</text>
</g>
<g>
	<text font-family="Helvetica" font-size="8" fill="#000000" xml:space="preserve" x="449" y="98">Send WS://WSH/?mode=publish&amp;topic_url=ws://P/rss</text>
</g>
<g>
	<text font-family="Helvetica" font-size="8" fill="#000000" xml:space="preserve" x="417" y="141">POST HTTP://H/?mode=publish&amp;topic_url=http://WSH/P/rss?</text>
</g>
<g>
	<text font-family="Helvetica" font-size="8" fill="#000000" xml:space="preserve" x="460" y="159">20X</text>
</g>
<g>
	<text font-family="Helvetica" font-size="8" fill="#000000" xml:space="preserve" x="447" y="698">Send WS://WSH/?mode=publish&amp;topic_url=ws://P/rss</text>
</g>
<g>
	<text font-family="Helvetica" font-size="8" fill="#000000" xml:space="preserve" x="327" y="769">POST HTTP://H/?mode=publish&amp;topic_url=http://WSH/P/rss?</text>
</g>
<g>
	<text font-family="Helvetica" font-size="8" fill="#000000" xml:space="preserve" x="461" y="789">20X</text>
</g>
<g>
	<text font-family="Helvetica" font-size="8" fill="#000000" xml:space="preserve" x="534" y="836">Send WS://WSP [20X]</text>
</g>
<g>
	<text font-family="Helvetica" font-size="8" fill="#000000" xml:space="preserve" x="413" y="885">GET HTTP://WSH/P/rss?</text>
</g>
<g>
	<text font-family="Helvetica" font-size="8" fill="#000000" xml:space="preserve" x="538" y="929">Send WS://P/rss</text>
</g>
<g>
	<text font-family="Helvetica" font-size="8" fill="#000000" xml:space="preserve" x="525" y="996">Send WS://WSH [...xml...]</text>
</g>
<g>
	<text font-family="Helvetica" font-size="8" fill="#000000" xml:space="preserve" x="440" y="1012">200 [...xml..]</text>
</g>
<g>
	<text font-family="Helvetica" font-size="8" fill="#000000" xml:space="preserve" x="255" y="1043">POST HTTP://WSH/callback [...xml...]</text>
</g>
<g>
	<text font-family="Helvetica" font-size="8" fill="#000000" xml:space="preserve" x="337" y="1062">20X</text>
</g>
<g>
	<text font-family="Helvetica" font-size="8" fill="#000000" xml:space="preserve" x="577" y="177">20X</text>
</g>
<g>
	<text font-family="Helvetica" font-size="8" fill="#000000" xml:space="preserve" x="277" y="410">store S?</text>
</g>
<g>
	<rect fill="#ffd700" stroke="black" stroke-width="1" stroke-opacity="1" x="405" y="776" width="10" height="35" />
</g>
<g>
	<line stroke="black" stroke-opacity="1" x1="650" y1="688" x2="751" y2="688" />
	<path fill="none" stroke="black" stroke-opacity="1" d="M 654 684 L 650 688 L 654 692" />
</g>
<g>
	<line stroke="black" stroke-opacity="1" x1="416" y1="150" x2="525" y2="150" />
	<polygon fill="#000000" stroke="none" points="416,150 420,146 420,154" />
</g>
<g>
	<line stroke="black" stroke-opacity="1" x1="416" y1="1024" x2="525" y2="1024" />
	<polygon fill="#000000" stroke="none" points="416,1024 420,1020 420,1028" />
</g>
<g>
	<line stroke="black" stroke-opacity="1" x1="650" y1="980" x2="751" y2="980" />
	<path fill="none" stroke="black" stroke-opacity="1" d="M 654 976 L 650 980 L 654 984" />
</g>
<g>
	<line stroke="black" stroke-opacity="1" x1="650" y1="957" x2="751" y2="957" />
	<path fill="none" stroke="black" stroke-opacity="1" d="M 747 953 L 751 957 L 747 961" />
</g>
<g>
	<line stroke="black" stroke-opacity="1" x1="650" y1="85" x2="751" y2="85" />
	<path fill="none" stroke="black" stroke-opacity="1" d="M 654 81 L 650 85 L 654 89" />
</g>
<g>
	<ellipse fill="none" stroke="black" stroke-width="1" stroke-opacity="1" cx="282" cy="7" rx="3" ry="3" />
	<line stroke="black" stroke-opacity="1" x1="277" y1="13" x2="288" y2="13" />
	<line stroke="black" stroke-opacity="1" x1="282" y1="10" x2="282" y2="18" />
	<line stroke="black" stroke-opacity="1" x1="282" y1="18" x2="277" y2="23" />
	<line stroke="black" stroke-opacity="1" x1="282" y1="18" x2="287" y2="23" />
	<text font-family="Helvetica" font-size="8" fill="#000000" xml:space="preserve" text-anchor="middle" x="283" y="37">Subscriber:HubWebsocket</text>
</g>
<g>
	<line stroke="black" stroke-opacity="1" x1="289" y1="454" x2="405" y2="454" />
	<polygon fill="#000000" stroke="none" points="405,454 401,450 401,458" />
</g>
<g>
	<line stroke="black" stroke-opacity="1" x1="172" y1="406" x2="278" y2="406" />
	<path fill="none" stroke="black" stroke-opacity="1" d="M 274 402 L 278 406 L 274 410" />
</g>
<g>
	<line stroke="black" stroke-opacity="1" x1="289" y1="473" x2="405" y2="473" />
	<polygon fill="#000000" stroke="none" points="289,473 293,469 293,477" />
</g>
<g>
	<line stroke="black" stroke-opacity="1" x1="536" y1="110" x2="639" y2="110" />
	<path fill="none" stroke="black" stroke-opacity="1" d="M 540 106 L 536 110 L 540 114" />
</g>
<g>
	<line stroke="black" stroke-opacity="1" x1="416" y1="801" x2="525" y2="801" />
	<polygon fill="#000000" stroke="none" points="525,801 521,797 521,805" />
</g>
<g>
	<line stroke="black" stroke-opacity="1" x1="289" y1="536" x2="405" y2="536" />
	<polygon fill="#000000" stroke="none" points="405,536 401,532 401,540" />
</g>
<g>
	<line stroke="black" stroke-opacity="1" x1="289" y1="560" x2="405" y2="560" />
	<polygon fill="#000000" stroke="none" points="289,560 293,556 293,564" />
</g>
<g>
	<line stroke="black" stroke-opacity="1" x1="289" y1="512" x2="405" y2="512" />
	<polygon fill="#000000" stroke="none" points="289,512 293,508 293,516" />
</g>
<g>
	<line stroke="black" stroke-opacity="1" x1="172" y1="600" x2="278" y2="600" />
	<path fill="none" stroke="black" stroke-opacity="1" d="M 176 596 L 172 600 L 176 604" />
</g>
<g>
	<line stroke="black" stroke-opacity="1" x1="416" y1="897" x2="525" y2="897" />
	<polygon fill="#000000" stroke="none" points="525,897 521,893 521,901" />
</g>
<g>
	<line stroke="black" stroke-dasharray="18,6"  stroke-opacity="1" x1="166" y1="45" x2="166" y2="1191" />
</g>
<g>
	<rect fill="#ffc0ff" stroke="black" stroke-width="1" stroke-opacity="1" x="161" y="178" width="10" height="974" />
</g>
<g>
	<line stroke="black" stroke-opacity="1" x1="56" y1="1145" x2="161" y2="1145" />
	<path fill="none" stroke="black" stroke-opacity="1" d="M 60 1141 L 56 1145 L 60 1149" />
</g>
<g>
	<line stroke="black" stroke-dasharray="18,6"  stroke-opacity="1" x1="283" y1="45" x2="283" y2="1191" />
</g>
<g>
	<rect fill="#ffeb60" stroke="black" stroke-width="1" stroke-opacity="1" x="278" y="191" width="10" height="980" />
</g>
<g>
	<line stroke="black" stroke-opacity="1" x1="289" y1="289" x2="639" y2="289" />
	<path fill="none" stroke="black" stroke-opacity="1" d="M 293 285 L 289 289 L 293 293" />
</g>
<g>
	<line stroke="black" stroke-opacity="1" x1="289" y1="1074" x2="405" y2="1074" />
	<polygon fill="#000000" stroke="none" points="405,1074 401,1070 401,1078" />
</g>
<g>
	<line stroke="black" stroke-opacity="1" stroke-dasharray="4,4" x1="172" y1="209" x2="278" y2="209" />
	<path fill="none" stroke="black" stroke-opacity="1" d="M 176 205 L 172 209 L 176 213" />
</g>
<g>
	<line stroke="black" stroke-opacity="1" x1="172" y1="1127" x2="278" y2="1127" />
	<path fill="none" stroke="black" stroke-opacity="1" d="M 176 1123 L 172 1127 L 176 1131" />
</g>
<g>
	<line stroke="black" stroke-opacity="1" stroke-dasharray="4,4" x1="172" y1="222" x2="278" y2="222" />
	<path fill="none" stroke="black" stroke-opacity="1" d="M 274 218 L 278 222 L 274 226" />
</g>
<g>
	<line stroke="black" stroke-opacity="1" x1="56" y1="388" x2="161" y2="388" />
	<path fill="none" stroke="black" stroke-opacity="1" d="M 157 384 L 161 388 L 157 392" />
</g>
<g>
	<line stroke="black" stroke-opacity="1" x1="289" y1="1055" x2="405" y2="1055" />
	<polygon fill="#000000" stroke="none" points="289,1055 293,1051 293,1059" />
</g>
<g>
	<path fill="none" stroke="black" stroke-opacity="1" d="M 290 418 L 307 418 L 307 425 L 290 425" />
	<path fill="none" stroke="black" stroke-opacity="1" d="M 294 429 L 290 425 L 294 421" />
</g>
<g>
	<line stroke="black" stroke-opacity="1" x1="172" y1="310" x2="278" y2="310" />
	<path fill="none" stroke="black" stroke-opacity="1" d="M 176 306 L 172 310 L 176 314" />
</g>
<g>
	<line stroke="black" stroke-opacity="1" x1="56" y1="333" x2="161" y2="333" />
	<path fill="none" stroke="black" stroke-opacity="1" d="M 60 329 L 56 333 L 60 337" />
</g>
<g>
	<line stroke="black" stroke-opacity="1" x1="289" y1="238" x2="639" y2="238" />
	<path fill="none" stroke="black" stroke-opacity="1" d="M 635 234 L 639 238 L 635 242" />
</g>
<g>
	<line stroke="black" stroke-opacity="1" x1="56" y1="184" x2="161" y2="184" />
	<path fill="none" stroke="black" stroke-opacity="1" d="M 157 180 L 161 184 L 157 188" />
</g>
<g>
	<line stroke="black" stroke-opacity="1" x1="172" y1="196" x2="278" y2="196" />
	<path fill="none" stroke="black" stroke-opacity="1" d="M 274 192 L 278 196 L 274 200" />
</g>
<g>
	<line stroke="black" stroke-opacity="1" x1="416" y1="171" x2="525" y2="171" />
	<polygon fill="#000000" stroke="none" points="525,171 521,167 521,175" />
</g>
</svg>
